<?xml version="1.0" encoding="utf-8"?>
<!-- Generator: Adobe Illustrator 17.0.0, SVG Export Plug-In . SVG Version: 6.00 Build 0)  -->
<!DOCTYPE svg PUBLIC "-//W3C//DTD SVG 1.1//EN" "http://www.w3.org/Graphics/SVG/1.1/DTD/svg11.dtd">
<svg version="1.1" id="Calque_1" xmlns="http://www.w3.org/2000/svg" xmlns:xlink="http://www.w3.org/1999/xlink" x="0px" y="0px"
	 width="33.178px" height="33.184px" viewBox="0 0 33.178 33.184" enable-background="new 0 0 33.178 33.184" xml:space="preserve">
<circle fill="#E7BB08" cx="16.589" cy="16.592" r="16.589"/>
<g transform="translate(0,-952.36218)">
	<path d="M16.589,958.422c-5.593,0-10.118,4.523-10.118,10.118c0,2.11,0.643,4.062,1.786,5.739c0.086,0.128,0.109,0.288,0.063,0.435
		l-1.028,3.439l3.367-1.162c0.146-0.049,0.306-0.028,0.435,0.055c1.577,1.023,3.466,1.613,5.494,1.613
		c5.595,0,10.118-4.523,10.118-10.118C26.707,962.945,22.184,958.422,16.589,958.422z M12.447,962.833l1.842,3.043l-0.767,0.759
		c-0.16,0.162-0.193,0.411-0.079,0.609c1.17,2.026,2.556,3.603,4.498,4.458c0.19,0.085,0.413,0.044,0.561-0.103l0.814-0.814
		l2.972,1.858c-0.329,0.741-0.758,1.182-1.249,1.439c-0.568,0.298-1.263,0.354-2.055,0.19c-1.585-0.329-3.499-1.574-5.059-3.17
		c-1.56-1.596-2.767-3.536-3.075-5.114c-0.154-0.789-0.086-1.469,0.206-2.008C11.307,963.515,11.733,963.117,12.447,962.833
		L12.447,962.833z"/>
</g>
</svg>
