<?xml version="1.0" encoding="utf-8"?>
<!-- Generator: Adobe Illustrator 17.0.0, SVG Export Plug-In . SVG Version: 6.00 Build 0)  -->
<!DOCTYPE svg PUBLIC "-//W3C//DTD SVG 1.1//EN" "http://www.w3.org/Graphics/SVG/1.1/DTD/svg11.dtd">
<svg version="1.1" id="Calque_1" xmlns="http://www.w3.org/2000/svg" xmlns:xlink="http://www.w3.org/1999/xlink" x="0px" y="0px"
	 width="33.178px" height="33.184px" viewBox="0 0 33.178 33.184" enable-background="new 0 0 33.178 33.184" xml:space="preserve">
<circle fill="#E7BB08" cx="16.589" cy="16.592" r="16.589"/>
<path d="M22.514,6.918H10.155c-1.71,0-3.09,1.38-3.09,3.09v12.359c0,1.71,1.38,3.09,3.09,3.09h12.359c1.71,0,3.09-1.38,3.09-3.09
	V10.007C25.604,8.298,24.224,6.918,22.514,6.918z M23.544,22.366c0,0.577-0.453,1.03-1.03,1.03H10.155
	c-0.577,0-1.03-0.453-1.03-1.03v-7.209h3.234c-0.082,0.33-0.144,0.68-0.144,1.03c0,2.266,1.854,4.12,4.12,4.12s4.12-1.854,4.12-4.12
	c0-0.35-0.041-0.7-0.144-1.03h3.234V22.366z M14.275,16.187c0-1.133,0.927-2.06,2.06-2.06s2.06,0.927,2.06,2.06
	c0,1.133-0.927,2.06-2.06,2.06S14.275,17.32,14.275,16.187z M23.544,13.097h-4.49c-0.721-0.639-1.668-1.03-2.719-1.03
	s-1.998,0.391-2.719,1.03h-4.49v-3.09c0-0.577,0.453-1.03,1.03-1.03h12.359c0.577,0,1.03,0.453,1.03,1.03V13.097z"/>
<rect x="20.454" y="10.007" width="2.06" height="2.06"/>
</svg>
