<?xml version="1.0" encoding="utf-8"?>
<!-- Generator: Adobe Illustrator 17.0.0, SVG Export Plug-In . SVG Version: 6.00 Build 0)  -->
<!DOCTYPE svg PUBLIC "-//W3C//DTD SVG 1.1//EN" "http://www.w3.org/Graphics/SVG/1.1/DTD/svg11.dtd">
<svg version="1.1" id="Calque_1" xmlns="http://www.w3.org/2000/svg" xmlns:xlink="http://www.w3.org/1999/xlink" x="0px" y="0px"
	 width="50px" height="50px" viewBox="-5.865 -40.634 50 50" enable-background="new -5.865 -40.634 50 50" xml:space="preserve">
<path fill="#e7bb05" d="M5.766-40.634c-2.707,0-4.489,2.337-4.489,5.331v11.235c-4.117,0.156-7.143,3.398-7.143,7.515V1.999
	c0,4.061,3.246,7.367,7.663,7.367H36.52c4.22,0,7.615-3.098,7.615-7.367v-18.552c0-4.152-3.681-7.415-7.961-7.415h-7.911v-11.335
	c0-2.794-2.956-5.331-5.828-5.331C22.435-40.634,5.766-40.634,5.766-40.634z M5.766-38.254h16.667c1.569,0,3.448,1.457,3.448,2.952
	v12.4c0,0.137,0.031,0.25,0.074,0.372c0.009,0.024,0.015,0.05,0.024,0.074c0.013,0.05,0.03,0.102,0.05,0.148
	c0.013,0.024,0.033,0.052,0.05,0.074c0.198,0.383,0.58,0.644,1.041,0.644h9.052c1.683,0,3.226,0.678,4.267,1.785L21.763-7.949
	c-1.591,0.909-3.583,0.937-5.133,0.074L-2.417-19.753c0.852-1.113,2.148-1.839,3.696-1.935v1.687c0,0.657,0.533,1.191,1.191,1.191
	s1.191-0.533,1.191-1.191v-15.302C3.659-36.738,4.176-38.254,5.766-38.254z M7.279-34.286c-0.657,0-1.191,0.533-1.191,1.191
	s0.533,1.191,1.191,1.191h15.08c0.657,0,1.191-0.533,1.191-1.191s-0.533-1.191-1.191-1.191H7.279z M7.279-29.523
	c-0.657,0-1.191,0.533-1.191,1.191c0,0.657,0.533,1.191,1.191,1.191h15.08c0.657,0,1.191-0.533,1.191-1.191
	c0-0.657-0.533-1.191-1.191-1.191H7.279z M7.279-24.762c-0.657,0-1.191,0.533-1.191,1.191c0,0.657,0.533,1.191,1.191,1.191h15.08
	c0.657,0,1.191-0.533,1.191-1.191c0-0.657-0.533-1.191-1.191-1.191H7.279z M41.605-17.743c0.1,0.378,0.148,0.78,0.148,1.191V1.999
	c0,2.933-2.346,4.985-5.233,4.985H1.798c-3.104,0-5.283-2.237-5.283-4.985v-18.552c0-0.335,0.043-0.676,0.1-0.993L15.439-5.84
	c1.143,0.637,2.413,0.967,3.696,0.967c1.328,0,2.67-0.357,3.869-1.041L41.605-17.743z"/>
</svg>
