<?xml version="1.0" encoding="utf-8"?>
<!-- Generator: Adobe Illustrator 17.0.0, SVG Export Plug-In . SVG Version: 6.00 Build 0)  -->
<!DOCTYPE svg PUBLIC "-//W3C//DTD SVG 1.1//EN" "http://www.w3.org/Graphics/SVG/1.1/DTD/svg11.dtd">
<svg version="1.1" id="Calque_1" xmlns="http://www.w3.org/2000/svg" xmlns:xlink="http://www.w3.org/1999/xlink" x="0px" y="0px"
	 width="50px" height="43.171px" viewBox="-5.865 -5.458 50 43.171" enable-background="new -5.865 -5.458 50 43.171"
	 xml:space="preserve">
<path fill="none" d="M6.577,9.357c0,9.028,9.664,18.692,12.5,21.354c2.836-2.662,12.5-12.442,12.5-21.354
	c0-6.887-5.613-12.5-12.5-12.5C12.191-3.143,6.577,2.471,6.577,9.357z M26.137,9.299c0,3.935-3.183,7.06-7.06,7.06
	s-7.06-3.183-7.06-7.06s3.125-7.118,7.06-7.118S26.137,5.364,26.137,9.299z"/>
<path fill="none" d="M14.332,9.299c0,2.604,2.141,4.745,4.745,4.745s4.745-2.141,4.745-4.745s-2.141-4.745-4.745-4.745
	S14.332,6.637,14.332,9.299z"/>
<path fill="#e7bb05" d="M44.019,36.325c0-0.058,0-0.058-0.058-0.116v-0.058l-3.53-9.086l0,0c0-0.058-0.058-0.058-0.058-0.116
	c0,0,0-0.058-0.058-0.058c0-0.058-0.058-0.058-0.058-0.058c0-0.058-0.058-0.058-0.058-0.116l-0.058-0.058
	c-0.058-0.058-0.058-0.058-0.116-0.058l-0.058-0.058c-0.058,0-0.058-0.058-0.116-0.058c-0.058,0-0.058,0-0.116-0.058
	c-0.058,0-0.058-0.058-0.116-0.058h-0.058c-0.058,0-0.116,0-0.174,0l0,0h-8.623c-0.637,0-1.157,0.521-1.157,1.157
	c0,0.637,0.521,1.157,1.157,1.157h7.813l2.604,6.771H-3.087l2.604-6.771h7.813c0.637,0,1.157-0.521,1.157-1.157
	c0-0.637-0.521-1.157-1.157-1.157h-8.623l0,0c-0.058,0-0.058,0-0.116,0c-0.058,0-0.058,0-0.116,0c-0.058,0-0.058,0-0.116,0.058
	c-0.058,0-0.058,0-0.116,0.058l-0.058,0.058c-0.058,0-0.058,0.058-0.116,0.058l-0.058,0.058c-0.058,0-0.058,0.058-0.116,0.058
	l-0.058,0.058c0,0.058-0.058,0.058-0.058,0.116c0,0,0,0.058-0.058,0.058c0,0.058-0.058,0.058-0.058,0.116l0,0l-3.472,9.086v0.058
	c0,0.058,0,0.058-0.058,0.116c0,0.058,0,0.058,0,0.116v0.058l0,0c0,0.058,0,0.116,0,0.116c0,0.058,0,0.058,0,0.116
	c0,0.058,0,0.058,0.058,0.116c0,0.116,0,0.174,0,0.174c0,0.058,0.058,0.058,0.058,0.116s0.058,0.058,0.058,0.116
	s0.058,0.058,0.058,0.116l0.058,0.058c0,0,0.058,0.058,0.116,0.058s0.058,0.058,0.116,0.058l0.058,0.058
	c0.058,0,0.058,0.058,0.116,0.058l0,0c0.058,0,0.058,0,0.116,0.058c0.058,0,0.058,0,0.116,0s0.174,0,0.231,0l0,0H42.92l0,0
	c0.058,0,0.174,0,0.231,0s0.058,0,0.116,0c0.058,0,0.058,0,0.116-0.058l0,0c0.058,0,0.058-0.058,0.116-0.058
	c0,0,0.058,0,0.058-0.058c0.058,0,0.058-0.058,0.116-0.058c0.058,0,0.058-0.058,0.116-0.058l0.058-0.058
	c0-0.058,0.058-0.058,0.058-0.116s0.058-0.058,0.058-0.116s0.058-0.058,0.058-0.116s0-0.058,0.058-0.116
	c0-0.058,0-0.058,0.058-0.116c0-0.058,0-0.058,0-0.116s0-0.116,0-0.116l0,0v-0.058C44.077,36.441,44.019,36.383,44.019,36.325z"/>
<path fill="#e7bb05" d="M4.262,9.357c0,4.919,2.373,10.417,7.06,16.377c3.472,4.34,6.829,7.292,7.002,7.407
	c0.231,0.174,0.463,0.289,0.752,0.289s0.521-0.116,0.752-0.289c0.116-0.116,3.53-3.067,7.002-7.465
	c4.688-5.961,7.06-11.458,7.06-16.319c0-8.16-6.655-14.815-14.815-14.815C10.917-5.458,4.262,1.197,4.262,9.357z M31.577,9.357
	c0,8.912-9.664,18.692-12.5,21.354c-2.836-2.604-12.5-12.326-12.5-21.354c0-6.887,5.613-12.5,12.5-12.5
	C25.964-3.143,31.577,2.471,31.577,9.357z"/>
<path fill="#e7bb05" d="M12.017,9.299c0,3.935,3.183,7.06,7.06,7.06s7.06-3.183,7.06-7.06s-3.125-7.118-7.06-7.118
	S12.017,5.364,12.017,9.299z M23.823,9.299c0,2.604-2.141,4.745-4.745,4.745s-4.745-2.141-4.745-4.745s2.141-4.745,4.745-4.745
	S23.823,6.637,23.823,9.299z"/>
</svg>
