<?xml version="1.0" encoding="utf-8"?>
<!-- Generator: Adobe Illustrator 17.0.0, SVG Export Plug-In . SVG Version: 6.00 Build 0)  -->
<!DOCTYPE svg PUBLIC "-//W3C//DTD SVG 1.1//EN" "http://www.w3.org/Graphics/SVG/1.1/DTD/svg11.dtd">
<svg version="1.1" id="Calque_1" xmlns="http://www.w3.org/2000/svg" xmlns:xlink="http://www.w3.org/1999/xlink" x="0px" y="0px"
	 width="50.05px" height="50px" viewBox="-6.234 -70.689 50.05 50" enable-background="new -6.234 -70.689 50.05 50"
	 xml:space="preserve">
<g>
	<path fill="#e7bb05" d="M23.35-43.422c0,1.221-0.869,2.21-1.935,2.21c-1.074,0-1.939-0.988-1.939-2.21
		c0-1.223,0.867-2.214,1.939-2.214C22.481-45.633,23.35-44.645,23.35-43.422z"/>
</g>
<g>
	<path fill="#e7bb05" d="M29.47-43.422c0,1.221-0.869,2.21-1.937,2.21c-1.074,0-1.935-0.988-1.935-2.21
		c0-1.223,0.863-2.214,1.935-2.214C28.601-45.633,29.47-44.645,29.47-43.422z"/>
</g>
<g>
	<path fill="#e7bb05" d="M35.741-43.422c0,1.221-0.869,2.21-1.941,2.21c-1.068,0-1.935-0.988-1.935-2.21
		c0-1.223,0.867-2.214,1.935-2.214C34.871-45.633,35.741-44.645,35.741-43.422z"/>
</g>
<g>
	<path fill="#e7bb05" d="M23.35-37.769c0,1.225-0.869,2.218-1.935,2.218c-1.074,0-1.939-0.992-1.939-2.218
		c0-1.221,0.867-2.214,1.939-2.214C22.481-39.983,23.35-38.99,23.35-37.769z"/>
</g>
<g>
	<path fill="#e7bb05" d="M29.47-37.769c0,1.225-0.869,2.218-1.937,2.218c-1.074,0-1.935-0.992-1.935-2.218
		c0-1.221,0.863-2.214,1.935-2.214C28.601-39.983,29.47-38.99,29.47-37.769z"/>
</g>
<g>
	<path fill="#e7bb05" d="M35.741-37.769c0,1.225-0.869,2.218-1.941,2.218c-1.068,0-1.935-0.992-1.935-2.218
		c0-1.221,0.867-2.214,1.935-2.214C34.871-39.983,35.741-38.99,35.741-37.769z"/>
</g>
<g>
	<path fill="#e7bb05" d="M23.35-32.332c0,1.227-0.869,2.214-1.935,2.214c-1.074,0-1.939-0.986-1.939-2.214
		c0-1.219,0.867-2.21,1.939-2.21C22.481-34.543,23.35-33.551,23.35-32.332z"/>
</g>
<g>
	<path fill="#e7bb05" d="M29.47-32.332c0,1.227-0.869,2.214-1.937,2.214c-1.074,0-1.935-0.986-1.935-2.214
		c0-1.219,0.863-2.21,1.935-2.21C28.601-34.543,29.47-33.551,29.47-32.332z"/>
</g>
<g>
	<path fill="#e7bb05" d="M35.741-32.332c0,1.227-0.869,2.214-1.941,2.214c-1.068,0-1.935-0.986-1.935-2.214
		c0-1.219,0.867-2.21,1.935-2.21C34.871-34.543,35.741-33.551,35.741-32.332z"/>
</g>
<g>
	<path fill="#e7bb05" d="M13.278-30.019H0.359c-0.702,0-1.273-0.65-1.273-1.454v-37.763c0-0.802,0.571-1.454,1.273-1.454h12.92
		c0.702,0,1.273,0.65,1.273,1.454v37.763C14.551-30.669,13.982-30.019,13.278-30.019z M1.632-32.926h10.374v-34.855H1.632V-32.926z"
		/>
</g>
<g>
	<path fill="#e7bb05" d="M13.089-35.448H1.118c-0.702,0-1.273-0.65-1.273-1.454c0-0.802,0.571-1.454,1.273-1.454h11.971
		c0.702,0,1.273,0.65,1.273,1.454S13.792-35.448,13.089-35.448z"/>
</g>
<g>
	<path fill="#e7bb05" d="M41.974-25.679H-4.013c-0.702,0-1.273-0.65-1.273-1.454c0-0.802,0.571-1.454,1.273-1.454h45.986
		c0.702,0,1.273,0.65,1.273,1.454C43.247-26.329,42.676-25.679,41.974-25.679z"/>
</g>
<g>
	<path fill="#e7bb05" d="M42.542-20.689H-4.961c-0.702,0-1.273-0.65-1.273-1.454v-39.282c0-0.802,0.571-1.454,1.273-1.454h4.938
		c0.702,0,1.273,0.65,1.273,1.454c0,0.804-0.571,1.454-1.273,1.454h-3.665v36.374H41.27v-36.374H14.042
		c-0.702,0-1.273-0.65-1.273-1.454c0-0.802,0.571-1.454,1.273-1.454h28.5c0.702,0,1.273,0.65,1.273,1.454v39.282
		C43.815-21.339,43.245-20.689,42.542-20.689z"/>
</g>
<g>
	<path fill="#e7bb05" d="M37.222-46.946H17.841c-0.702,0-1.273-0.65-1.273-1.454v-8.031c0-0.802,0.571-1.454,1.273-1.454h19.381
		c0.702,0,1.273,0.65,1.273,1.454v8.031C38.495-47.598,37.924-46.946,37.222-46.946z M19.114-49.854h16.836v-5.125H19.114V-49.854z"
		/>
</g>
</svg>
